<svg width="458" height="280" viewBox="0 0 458 280" fill="none" xmlns="http://www.w3.org/2000/svg">
<g opacity="0.5">
<path d="M126.716 -18.2722C110.843 -44.3056 32.3128 -57.1613 45.2719 -5.32657C47.3967 3.17258 47.6105 17.8074 45.2719 35.6209C43.1296 51.9392 1.19138 60.8681 -11.6822 81.953C-31.8718 115.02 43.6157 138.069 31.6029 155.452C15.8692 178.219 -32.3067 188.097 -58.9541 200.553C-84.0398 212.279 -100.019 231.094 -106.154 250.438C-116.918 284.374 -97.3843 319.937 -43.5765 321.707C-16.6406 322.592 18.8842 315.01 63.4971 294.514C83.4436 285.351 101.032 277.799 116.664 271.693C156.897 255.976 146.081 293.152 193.922 294.514C221.182 295.291 249.653 263.196 271.206 280.316C286.532 292.488 304.118 307.258 329.234 322.443C373.34 349.109 428.486 353.036 436.286 314.977C439.968 297.011 433.099 269.689 409.539 230.987C394.461 206.22 431.965 207.093 436.286 175.355C440.607 143.617 405.272 128.98 430.851 115.845L431.363 115.581C450.86 105.57 471.654 94.893 483.01 74.385C492.792 56.7194 491.857 39.2228 483.01 25.7784C473.541 11.39 455.009 1.64281 430.851 1.29706C406.611 0.950142 376.707 10.0682 344.611 33.4596C323.449 48.882 309.118 12.9965 271.206 16.6648C233.294 20.3332 228.025 54.9582 205.313 44.9156C165.861 27.4708 145.307 12.2175 126.716 -18.2722Z" stroke="#DDDDDD" stroke-width="1.19883"/>
<path d="M203.294 123.734C200.879 119.737 189.62 120.786 189.051 125.118C188.402 130.049 192.357 136.476 191.899 141.419C191.017 150.964 185.668 153.68 175.017 158.711C171.199 160.511 168.767 163.4 167.833 166.369C166.195 171.579 169.168 177.039 177.357 177.31C181.456 177.446 186.862 176.282 193.652 173.136C196.687 171.729 199.364 170.57 201.743 169.632C212.099 165.225 221.738 168.678 225.262 170.956C227.595 172.825 230.271 175.092 234.093 177.423C240.806 181.517 250.97 180.981 250.385 176.277C249.558 169.632 231.56 144.829 250.385 140.504C259.129 138.495 258.842 133.944 257.496 131.88C256.055 129.671 253.234 128.175 249.558 128.122C245.869 128.069 239.758 131.88 236.433 133.059C224.161 137.413 213.21 139.663 203.294 123.734Z" stroke="#DDDDDD" stroke-width="1.19883"/>
<path d="M58.4022 6.01416C46.901 -41.1735 118.664 -29.4106 133.217 -5.54463C151.034 23.6327 170.732 37.3074 207.745 52.7862C228.561 61.87 233.57 30.2549 268.284 26.8187C302.998 23.3825 316.26 55.947 335.682 41.9179C365.221 20.6407 392.686 12.4799 414.872 12.9949C436.914 13.4026 453.813 22.4199 462.351 35.6594C470.323 48.0399 470.981 64.1066 461.683 80.2697C449.548 99.4821 432.023 111.441 414.225 121.218C390.978 133.382 422.911 146.817 418.678 175.711C414.446 204.606 379.939 203.732 393.352 226.08C414.441 261.082 420.447 285.735 416.885 301.912C409.628 336.436 359.153 332.735 318.644 308.419C295.415 294.55 278.959 281.134 264.544 270.258C244.717 254.767 218.568 284.071 193.489 283.492C149.651 282.394 159.215 248.668 122.361 263.028C107.891 268.644 91.6718 275.538 73.3365 283.869C31.9995 302.491 -0.594124 308.897 -24.9534 307.622C-73.8693 305.878 -91.5656 273.389 -81.6628 242.394C-75.9712 224.676 -61.2903 207.452 -38.2918 196.703C-13.0772 184.916 31.2434 175.684 45.6394 154.108C56.5903 138.07 -12.1735 116.844 6.11925 86.502C17.7553 67.0622 55.8387 58.6823 57.8174 43.6132C59.9711 27.2107 60.0456 13.7743 58.4022 6.01416Z" stroke="#DDDDDD" stroke-width="1.19883"/>
<path d="M72.1216 17.8326C62.0952 -24.5532 126.987 -13.9218 140.198 7.69811C157.216 35.4646 176.028 47.5162 210.548 60.9791C229.438 69.0743 234.179 40.5731 265.645 37.3805C297.11 34.1879 309.284 63.3248 326.938 50.7349C353.875 31.6417 378.862 24.4647 398.962 25.1456C418.856 25.6137 434.097 33.8714 441.691 45.9182C448.777 57.194 449.158 71.7778 440.357 86.3853C427.559 104.058 413.596 117.248 397.669 126.682C376.788 137.833 405.271 150.021 401.134 175.978C396.996 201.935 365.536 201.062 377.265 220.92C395.852 252.106 400.987 274.011 397.55 288.346C390.846 319.222 345.115 315.758 308.264 293.873C286.955 281.365 271.653 269.346 258.169 259.802C240.098 245.99 216.309 272.409 193.447 272.028C153.676 271.199 161.974 241.033 128.553 253.988C115.267 259.095 100.44 265.308 83.7426 272.779C45.7418 289.468 16.127 294.678 -5.61998 293.017C-49.5724 291.305 -65.4059 261.998 -56.3782 234.046C-51.1385 218.012 -37.7771 202.436 -16.8994 192.698C6.84579 181.62 47.2464 173.064 60.2836 152.753C70.1567 138.113 8.21726 118.779 24.5862 91.2626C34.9676 73.5322 69.1404 65.7293 70.9527 51.9592C72.9184 37.0219 73.2811 24.8282 72.1216 17.8326Z" stroke="#DDDDDD" stroke-width="1.19883"/>
<path d="M85.2479 29.174C76.681 -8.56459 134.802 0.973845 146.691 20.4262C162.936 46.8798 180.893 57.3529 212.973 68.8499C229.966 75.9863 234.448 50.4951 262.712 47.5347C290.977 44.5742 302.082 70.3902 317.996 59.1934C342.373 42.2146 364.92 35.9949 382.965 36.8437C400.741 37.3737 414.348 44.9015 421.011 55.7992C427.221 66.0111 427.324 79.165 419.007 92.2699C405.526 108.467 395.103 122.93 381.024 132.054C362.477 142.233 387.555 153.219 383.505 176.333C379.456 199.447 350.993 198.572 361.057 216.012C377.171 243.498 381.442 262.734 378.124 275.28C371.962 302.621 330.906 299.382 297.655 279.848C278.234 268.655 264.062 257.99 251.488 249.742C235.144 237.559 213.679 261.188 192.999 261.004C157.233 260.439 164.278 233.723 134.239 245.321C122.115 249.938 108.658 255.493 93.5725 262.132C58.849 276.948 32.1674 280.981 12.9992 278.93C-26.0574 277.244 -40.0523 251.012 -31.8859 226.002C-27.09 211.593 -15.0273 197.608 3.76179 188.847C26.0747 178.439 62.6177 170.528 74.3163 151.41C83.1267 138.114 27.9162 120.602 42.3866 95.8117C51.5294 79.7266 81.8441 72.4728 83.4928 59.9519C85.2735 46.4257 85.9251 35.4306 85.2479 29.174Z" stroke="#DDDDDD" stroke-width="1.19883"/>
<path d="M98.9609 40.5148C91.8689 7.4249 143.115 15.8702 153.661 33.1547C169.105 58.2976 186.175 67.1912 215.76 76.721C230.826 82.8981 235.039 60.4178 260.053 57.6894C285.068 54.961 295.084 77.4547 309.229 67.6517C331.003 52.7878 351.069 47.526 367.028 48.5432C382.655 49.1353 394.603 55.9332 400.322 65.6818C405.645 74.8297 405.471 86.5534 397.653 98.1555C383.512 112.878 376.648 128.619 364.441 137.434C348.261 146.639 369.889 156.424 365.935 176.694C361.98 196.963 336.566 196.087 344.946 211.107C358.557 234.891 361.957 251.457 358.764 262.214C353.157 286.019 316.847 283.004 287.255 265.822C269.756 255.945 256.74 246.634 245.099 239.684C230.51 229.129 211.408 249.968 192.946 249.981C161.249 249.681 167.028 226.416 140.423 236.657C129.483 240.783 117.42 245.68 103.974 251.486C72.5889 264.428 48.8878 267.284 32.3327 264.842C-1.75866 263.181 -13.8901 240.025 -6.59943 217.958C-2.25577 205.175 8.48672 192.781 25.1539 184.996C45.9951 175.257 78.6158 167.992 88.955 150.065C96.6871 138.113 48.3037 122.424 60.8498 100.36C68.7375 85.9202 95.1403 79.2153 96.6224 67.9436C98.215 55.8287 99.1544 46.0321 98.9609 40.5148Z" stroke="#DDDDDD" stroke-width="1.19883"/>
<path d="M112.668 52.3895C107.05 24.0221 151.42 31.3554 160.624 46.4333C175.264 70.2085 191.444 77.503 218.529 85.0445C231.668 90.2486 235.612 70.8293 257.375 68.3391C279.138 65.849 288.065 84.9702 300.441 76.5828C319.611 63.8671 337.196 59.5748 351.067 60.7579C364.545 61.4108 374.835 67.4636 379.61 76.0412C384.046 84.1046 383.596 94.3719 376.276 104.445C361.48 117.659 358.172 134.642 347.838 143.127C334.024 151.34 352.202 159.901 348.344 177.281C344.486 194.661 322.121 193.785 328.818 206.352C339.928 226.381 342.457 240.241 339.39 249.184C334.337 269.4 302.775 266.616 276.844 251.824C261.267 243.285 249.408 235.349 238.7 229.711C225.868 220.81 209.129 238.811 192.887 239.021C165.26 238.987 169.773 219.225 146.605 228.085C136.849 231.711 126.18 235.94 114.374 240.9C86.3297 251.94 65.6101 253.612 51.6677 250.785C22.5419 249.153 12.2738 229.125 18.6884 210.049C22.5794 198.921 32.0013 188.146 46.5459 181.355C65.9127 172.307 94.6095 165.704 103.589 149.008C110.243 138.428 68.687 124.596 79.3088 105.308C85.9417 92.5459 108.433 86.4049 109.748 76.4077C111.152 65.7312 112.379 57.1553 112.668 52.3895Z" stroke="#DDDDDD" stroke-width="1.19883"/>
<path d="M125.782 63.7305C121.626 40.0141 159.213 46.2538 167.092 59.1631C180.959 81.6299 196.284 87.3437 220.926 92.9161C232.164 97.1603 235.848 80.7532 254.405 78.4951C272.962 76.2369 280.818 92.034 291.45 85.041C308.056 74.4414 323.197 71.1076 335.01 72.4597C346.366 73.1748 355.018 78.4978 358.86 85.9259C362.419 92.9251 361.69 101.762 354.855 110.332C339.373 122.07 339.614 140.337 331.13 148.513C319.654 155.754 334.42 163.112 330.65 177.647C326.88 192.181 307.519 191.303 312.546 201.45C321.177 217.774 322.841 228.962 319.893 236.115C315.384 252.792 288.504 250.233 266.18 237.794C252.494 230.571 241.767 223.989 231.97 219.65C220.868 212.379 206.457 227.588 192.401 227.996C168.787 228.228 172.043 211.919 152.262 219.421C143.672 222.556 134.374 226.127 124.183 230.253C99.4214 239.419 81.6401 239.912 70.2815 236.692C46.0606 235.086 37.6346 218.135 43.1865 202.002C46.633 192.501 54.7538 183.318 67.2062 177.503C85.1391 169.124 109.972 163.166 117.61 147.66C123.199 138.426 88.3849 126.416 97.1045 109.855C102.496 98.7387 121.122 93.1463 122.273 84.3985C123.493 75.1335 125.009 67.7567 125.782 63.7305Z" stroke="#DDDDDD" stroke-width="1.19883"/>
<path d="M139.472 75.0706C136.79 56.009 167.493 61.1545 174.028 71.894C187.084 93.0572 201.512 97.1881 223.645 100.788C232.953 104.072 236.367 90.6787 251.669 88.6523C266.971 86.6259 273.735 99.0958 282.596 93.4984C296.593 85.0167 309.25 82.6428 318.972 84.1647C328.177 84.9426 335.17 89.5357 338.068 95.814C340.74 101.749 339.736 109.154 333.403 116.22C317.277 126.483 321.064 146.043 314.453 153.914C305.346 160.182 316.661 166.338 312.99 178.024C309.318 189.711 293.011 188.831 296.356 196.554C302.486 209.17 303.28 217.683 300.46 223.043C296.507 236.178 274.38 233.843 255.721 223.758C243.962 217.853 234.396 212.627 225.537 209.588C216.195 203.949 204.15 216.365 192.316 216.971C172.778 217.469 174.77 204.616 158.428 210.759C151.025 213.404 143.124 216.315 134.575 219.608C113.162 226.898 98.3662 226.209 89.6212 222.595C70.369 221.012 63.807 207.141 68.4814 193.954C71.4743 186.079 78.2726 178.49 88.5997 173.652C105.05 165.94 125.953 160.627 132.23 146.309C136.74 138.419 108.759 128.233 115.553 114.4C119.69 104.93 134.401 99.8853 135.386 92.3871C136.416 84.5341 138.218 78.3567 139.472 75.0706Z" stroke="#DDDDDD" stroke-width="1.19883"/>
<path d="M152.779 86.4098C151.558 72.0089 175.544 76.0591 180.77 84.6271C193.092 104.493 206.706 107.038 226.457 108.661C233.885 110.982 237.048 100.607 249.178 98.8118C261.309 97.0169 267.018 106.155 274.155 101.955C285.622 95.5937 295.863 94.1818 303.549 95.8749C310.651 96.7162 316.021 100.579 317.99 105.707C319.789 110.577 318.503 116.55 312.636 122.11C295.767 130.899 303.134 151.768 298.361 159.335C291.574 164.63 299.497 169.582 295.902 178.417C292.307 187.252 278.965 186.37 280.642 191.665C284.302 200.566 284.229 206.4 281.52 209.963C278.099 219.551 260.606 217.441 245.511 209.713C235.614 205.127 227.154 201.259 219.182 199.523C211.548 195.518 201.803 205.137 192.128 205.942C176.558 206.708 177.294 197.317 164.304 202.1L163.944 202.224C157.796 204.339 151.366 206.552 144.545 208.963C126.361 214.373 114.47 212.498 108.293 208.486C93.9073 206.928 89.1752 196.138 92.9978 185.9C95.5538 179.655 101.067 173.659 109.325 169.8C124.388 162.753 141.476 158.084 146.426 144.95C149.88 138.406 128.583 130.044 133.488 118.942C136.39 111.118 147.265 106.621 148.088 100.372C148.936 93.932 151.035 88.955 152.779 86.4098Z" stroke="#DDDDDD" stroke-width="1.19883"/>
<path d="M166.436 98.2991C166.688 88.6223 183.769 91.5593 187.645 97.9178C199.14 116.397 211.839 117.345 229.058 116.985C234.549 118.333 237.438 111.021 246.302 109.465C255.165 107.91 259.777 113.676 265.135 110.892C273.982 106.679 281.729 106.235 287.318 108.092C292.263 108.993 295.968 112.109 296.992 116.063C297.904 119.846 296.344 124.361 290.987 128.39C273.5 135.665 284.396 157.747 281.499 164.977C277.086 169.276 281.554 173.002 278.062 178.947C274.57 184.892 264.295 184.011 264.292 186.855C265.45 192.003 264.509 195.132 261.931 196.884C259.07 202.883 246.346 201.005 234.932 195.669C226.972 192.422 219.683 189.928 212.658 189.503C206.791 187.15 199.422 193.93 191.98 194.931C180.5 195.96 179.972 190.072 170.434 193.473C165.371 195.126 160.227 196.708 154.922 198.32C140.106 201.828 131.212 198.775 127.653 194.384C118.247 192.856 115.383 185.197 118.324 177.953C120.423 173.364 124.608 168.989 130.733 166.125C144.296 159.775 157.436 155.772 161.02 143.881C163.392 138.712 148.946 132.211 151.922 123.889C153.568 117.746 160.52 113.816 161.175 108.846C161.834 103.847 164.215 100.092 166.436 98.2991Z" stroke="#DDDDDD" stroke-width="1.19883"/>
<path d="M180.296 109.654C182.012 104.667 192.244 106.5 194.782 110.669C205.468 127.804 217.273 127.161 231.993 124.822C235.563 125.204 238.182 120.931 243.806 119.611C249.43 118.292 252.955 120.707 256.55 119.329C262.801 117.25 268.075 117.77 271.583 119.794C274.388 120.755 276.441 123.133 276.526 125.926C276.555 128.633 274.721 131.702 269.865 134.214C251.741 139.995 266.163 163.33 265.13 170.239C263.074 173.554 264.108 176.066 260.714 179.141C257.321 182.216 250.087 181.335 248.41 181.741C247.08 183.157 245.274 183.597 242.824 183.545C240.516 185.979 232.523 184.33 224.757 181.367C218.716 179.448 212.582 178.32 206.492 179.201C202.376 178.489 197.362 182.453 192.132 183.65C184.708 184.945 182.923 182.537 176.808 184.568C172.927 185.724 169.174 186.643 165.503 187.415C154.021 189.033 148.098 184.8 147.139 180.022C142.678 178.522 141.668 173.968 143.736 169.694C145.384 166.747 148.252 163.979 152.262 162.102C164.347 156.433 173.576 153.085 175.805 142.41C177.103 138.601 169.456 133.942 170.518 128.374C170.915 123.896 173.972 120.523 174.461 116.817C174.932 113.244 177.596 110.701 180.296 109.654Z" stroke="#DDDDDD" stroke-width="1.19883"/>
</g>
</svg>
