<svg width="30" height="30" viewBox="0 0 30 30" fill="none" xmlns="http://www.w3.org/2000/svg">
<g clip-path="url(#clip0_285_991)">
<path d="M26.3334 29.0417H3.66671C2.10837 29.0417 0.833374 27.7667 0.833374 26.2083V11.4042C0.833374 10.4833 1.25837 9.63333 2.03754 9.06667L15 0L27.9625 9.06667C28.7417 9.5625 29.1667 10.4833 29.1667 11.4042V26.2083C29.1667 27.7667 27.8917 29.0417 26.3334 29.0417Z" fill="white" fill-opacity="0.54"/>
<path d="M7.91663 0.708344H22.0833V22.6667H7.91663V0.708344Z" fill="#AED581"/>
<path d="M7.20837 0V23.375H22.7917V0H7.20837ZM21.375 21.9583H8.62504V1.41667H21.375V21.9583Z" fill="#558B2F"/>
<path d="M22.0833 2.12501C22.0833 3.32918 21.8708 4.25001 20.6666 4.25001C19.4625 4.25001 18.5416 3.32918 18.5416 2.12501C18.5416 0.920843 19.4625 0.708344 20.6666 0.708344C21.8708 0.708344 22.0833 0.920843 22.0833 2.12501ZM9.33329 0.708344C10.5375 0.708344 11.4583 0.920843 11.4583 2.12501C11.4583 3.32918 10.5375 4.25001 9.33329 4.25001C8.12913 4.25001 7.91663 3.32918 7.91663 2.12501C7.91663 0.920843 8.12913 0.708344 9.33329 0.708344Z" fill="#558B2F"/>
<path d="M15 7.08333C15.7824 7.08333 16.4167 6.44907 16.4167 5.66667C16.4167 4.88426 15.7824 4.25 15 4.25C14.2176 4.25 13.5834 4.88426 13.5834 5.66667C13.5834 6.44907 14.2176 7.08333 15 7.08333Z" fill="#558B2F"/>
<path d="M15 18.4167C17.3472 18.4167 19.25 16.5139 19.25 14.1667C19.25 11.8194 17.3472 9.91666 15 9.91666C12.6528 9.91666 10.75 11.8194 10.75 14.1667C10.75 16.5139 12.6528 18.4167 15 18.4167Z" fill="#558B2F"/>
<path d="M26.3334 29.0417H3.66671C2.10837 29.0417 0.833374 27.7667 0.833374 26.2083V12.0417L15 21.25L29.1667 12.0417V26.2083C29.1667 27.7667 27.8917 29.0417 26.3334 29.0417Z" fill="#D85B1D"/>
</g>
<defs>
<clipPath id="clip0_285_991">
<rect width="30" height="30" fill="white"/>
</clipPath>
</defs>
</svg>
