<svg width="63" height="51" viewBox="0 0 63 51" fill="none" xmlns="http://www.w3.org/2000/svg">
<path d="M37.3305 17.7419C36.2565 17.7419 35.4797 18.5186 35.4797 19.5831C35.4797 20.6571 36.2565 21.4338 37.3209 21.4338C38.3949 21.4338 39.1621 20.6571 39.1717 19.5927C39.1717 18.5186 38.4045 17.7419 37.3305 17.7419Z" fill="#D85B1D"/>
<path d="M49.1983 17.742C48.1246 17.7229 47.3193 18.4783 47.3002 19.5398C47.281 20.6109 48.0479 21.4141 49.1024 21.4333C50.1761 21.4524 50.9718 20.6969 50.991 19.6354C51.0197 18.5548 50.2624 17.7611 49.1983 17.742Z" fill="#D85B1D"/>
<path d="M60.9967 17.7419C59.9227 17.7323 59.1364 18.507 59.1268 19.5687C59.1172 20.6399 59.8939 21.4241 60.9583 21.4337C62.0323 21.4433 62.809 20.6781 62.8186 19.6069C62.8282 18.5262 62.0706 17.7515 60.9967 17.7419Z" fill="#D85B1D"/>
<path d="M43.3136 23.6554C42.2402 23.6268 41.4256 24.3725 41.3873 25.4241C41.3585 26.4949 42.1061 27.3075 43.1603 27.3458C44.2336 27.3745 45.0483 26.6288 45.077 25.5771C45.1153 24.4872 44.3774 23.6841 43.3136 23.6554Z" fill="#D85B1D"/>
<path d="M55.099 23.6552C54.0251 23.6456 53.2292 24.4127 53.2196 25.4675C53.21 26.5415 53.9771 27.3374 55.0415 27.347C56.1155 27.3565 56.9018 26.5894 56.9113 25.525C56.9209 24.4511 56.1634 23.6648 55.099 23.6552Z" fill="#D85B1D"/>
<path d="M49.1185 29.5685C48.0542 29.578 47.2871 30.3719 47.3063 31.443C47.3158 32.5047 48.1117 33.2698 49.1856 33.2602C50.2499 33.2411 51.0074 32.4568 50.9978 31.3857C50.9786 30.3145 50.1924 29.5589 49.1185 29.5685Z" fill="#D85B1D"/>
<path d="M19.5908 3.694C20.6648 3.694 21.4319 2.91926 21.4319 1.83846C21.4319 0.767216 20.6552 0.00204468 19.5812 0.00204468C18.5072 0.00204468 17.7305 0.786346 17.7401 1.84802C17.7401 2.91926 18.5264 3.694 19.5908 3.694Z" fill="#D85B1D"/>
<path d="M33.2532 1.97465C33.3108 0.893211 32.5909 0.0605962 31.5448 0.00317453C30.4602 -0.0542471 29.6252 0.673094 29.5676 1.71625C29.5101 2.78812 30.2395 3.63031 31.2856 3.68773C32.3606 3.75472 33.2052 3.01781 33.2532 1.97465Z" fill="#D85B1D"/>
<path d="M43.2726 0.00207255C42.1986 -0.00751648 41.4027 0.759607 41.3932 1.8144C41.3836 2.88837 42.1507 3.68426 43.2151 3.69385C44.289 3.70344 45.0753 2.9459 45.0849 1.87193C45.0945 0.797962 44.337 0.0212506 43.2726 0.00207255Z" fill="#D85B1D"/>
<path d="M25.5326 5.91534C24.4586 5.90575 23.6723 6.66329 23.6532 7.72767C23.6436 8.80164 24.4011 9.59753 25.4655 9.60712C26.5395 9.61671 27.3258 8.85917 27.3449 7.7852C27.3545 6.72082 26.597 5.93452 25.5326 5.91534Z" fill="#D85B1D"/>
<path d="M37.3401 5.91534C36.2661 5.90578 35.4798 6.67091 35.4798 7.7421C35.4702 8.81329 36.247 9.59755 37.3114 9.60712C38.3854 9.61668 39.1621 8.84198 39.1717 7.78036C39.1717 6.69961 38.4141 5.92491 37.3401 5.91534Z" fill="#D85B1D"/>
<path d="M49.1476 5.91531C48.0736 5.91531 47.3064 6.69204 47.3064 7.76604C47.3064 8.84004 48.0927 9.61677 49.1572 9.60718C50.2312 9.60718 50.9983 8.83045 50.9983 7.74686C50.9888 6.68245 50.2216 5.91531 49.1476 5.91531Z" fill="#D85B1D"/>
<path d="M31.4869 11.8289C30.4136 11.8002 29.599 12.5458 29.5606 13.5973C29.5319 14.6679 30.2794 15.4804 31.3336 15.5187C32.407 15.5569 33.2216 14.8017 33.2503 13.7502C33.2887 12.6605 32.5507 11.8671 31.4869 11.8289Z" fill="#D85B1D"/>
<path d="M43.2438 11.8286C42.1698 11.8286 41.3931 12.6033 41.3931 13.665C41.3931 14.7362 42.1698 15.511 43.2342 15.5206C44.3083 15.5206 45.085 14.7554 45.085 13.6841C45.085 12.6033 44.3179 11.8286 43.2438 11.8286Z" fill="#D85B1D"/>
<path d="M55.0833 11.8286C54.0094 11.8191 53.2231 12.5938 53.2135 13.6554C53.2039 14.7266 53.9806 15.5108 55.045 15.5204C56.1189 15.53 56.8957 14.7553 56.9052 13.6936C56.9148 12.6129 56.1573 11.8382 55.0833 11.8286Z" fill="#D85B1D"/>
<path d="M7.75456 27.3533C8.82855 27.3533 9.60528 26.5861 9.60528 25.5121C9.60528 24.4381 8.83814 23.6613 7.76414 23.6613C6.69015 23.6613 5.91342 24.4381 5.91342 25.5025C5.90383 26.5669 6.69015 27.3437 7.75456 27.3533Z" fill="#DB831B"/>
<path d="M19.5523 27.347C20.6262 27.3565 21.4124 26.601 21.4316 25.5298C21.4412 24.449 20.6837 23.6647 19.6194 23.6552C18.5455 23.6456 17.7497 24.4012 17.7401 25.4628C17.7209 26.534 18.4976 27.3278 19.5523 27.347Z" fill="#DB831B"/>
<path d="M31.3919 23.6552C30.3275 23.6647 29.5508 24.449 29.5604 25.5202C29.57 26.5818 30.3659 27.3565 31.4302 27.347C32.5042 27.3374 33.2618 26.5531 33.2522 25.4819C33.2522 24.4108 32.4659 23.6456 31.3919 23.6552Z" fill="#DB831B"/>
<path d="M13.6809 33.2604C14.7549 33.2508 15.522 32.4761 15.5124 31.4048C15.5124 30.3336 14.7357 29.5684 13.6617 29.5684C12.5877 29.5684 11.8206 30.3527 11.8206 31.424C11.8301 32.4857 12.6165 33.2604 13.6809 33.2604Z" fill="#DB831B"/>
<path d="M23.6543 31.2796C23.5969 32.361 24.3244 33.1936 25.3678 33.2606C26.44 33.318 27.2824 32.5907 27.3399 31.5476C27.3973 30.4661 26.6793 29.6335 25.6359 29.5761C24.5446 29.5091 23.7117 30.2365 23.6543 31.2796Z" fill="#DB831B"/>
<path d="M37.3971 29.5687C36.3236 29.54 35.5088 30.2762 35.48 31.3374C35.4513 32.4082 36.1989 33.2208 37.2533 33.2591C38.3269 33.2878 39.1416 32.542 39.1704 31.4904C39.1991 30.4005 38.4611 29.5974 37.3971 29.5687Z" fill="#DB831B"/>
<path d="M19.5812 39.1798C20.6552 39.1798 21.4224 38.4127 21.4319 37.3386C21.4319 36.2646 20.6648 35.4879 19.5908 35.4879C18.5167 35.4879 17.74 36.2646 17.74 37.3291C17.74 38.3935 18.5167 39.1798 19.5812 39.1798Z" fill="#DB831B"/>
<path d="M31.3725 35.4818C30.3082 35.501 29.5412 36.2947 29.5604 37.3657C29.5796 38.4272 30.3754 39.1922 31.4492 39.1731C32.5134 39.154 33.2708 38.3698 33.2517 37.2892C33.2421 36.2182 32.4559 35.4627 31.3725 35.4818Z" fill="#DB831B"/>
<path d="M43.2726 35.4817C42.1986 35.4722 41.4027 36.2393 41.3932 37.2941C41.3836 38.368 42.1507 39.1639 43.2151 39.1735C44.289 39.1831 45.0753 38.4256 45.0849 37.3516C45.0945 36.2776 44.337 35.4913 43.2726 35.4817Z" fill="#DB831B"/>
<path d="M25.4267 45.0918C26.5001 45.1205 27.3147 44.3729 27.3435 43.3185C27.3722 42.2354 26.6343 41.4302 25.5801 41.4014C24.5067 41.3727 23.6921 42.1203 23.6537 43.1747C23.6154 44.2387 24.3725 45.0534 25.4267 45.0918Z" fill="#DB831B"/>
<path d="M37.3719 41.3951C36.2982 41.376 35.4929 42.1314 35.4737 43.1929C35.4546 44.264 36.2215 45.0672 37.276 45.0864C38.3497 45.1055 39.1454 44.35 39.1645 43.2886C39.1933 42.208 38.436 41.4142 37.3719 41.3951Z" fill="#DB831B"/>
<path d="M31.3787 47.3084C30.3144 47.3276 29.5473 48.1138 29.5665 49.1876C29.5857 50.2518 30.3815 51.0188 31.4458 50.9996C32.5101 50.9805 33.2676 50.1943 33.258 49.1205C33.2388 48.0562 32.4526 47.2892 31.3787 47.3084Z" fill="#DB831B"/>
<path d="M13.7061 9.61311C14.7704 9.59394 15.5279 8.80769 15.5183 7.7338C15.5087 6.66949 14.7224 5.90242 13.639 5.9216C12.5747 5.94078 11.8076 6.72702 11.8268 7.80092C11.8364 8.85564 12.6322 9.6227 13.7061 9.61311Z" fill="#DB831B"/>
<path d="M7.73878 15.5204C8.81277 15.53 9.5895 14.7648 9.59909 13.6936C9.60868 12.6225 8.84154 11.8382 7.77713 11.8286C6.70314 11.8191 5.91682 12.5938 5.90723 13.6554C5.90723 14.717 6.68396 15.5108 7.73878 15.5204Z" fill="#DB831B"/>
<path d="M19.5652 15.5204C20.6392 15.53 21.4159 14.7648 21.4255 13.6936C21.4351 12.6225 20.668 11.8382 19.6035 11.8286C18.5296 11.8191 17.7432 12.5938 17.7336 13.6554C17.7336 14.717 18.5104 15.5108 19.5652 15.5204Z" fill="#DB831B"/>
<path d="M1.83159 21.4399C2.90557 21.4494 3.68228 20.6727 3.69186 19.6083C3.70145 18.5344 2.93433 17.7481 1.86995 17.7481C0.795977 17.7385 0.00967685 18.5152 8.7818e-05 19.5796C-0.00950122 20.6344 0.76721 21.4303 1.83159 21.4399Z" fill="#DB831B"/>
<path d="M13.6001 21.4319C14.6735 21.4702 15.4881 20.715 15.5168 19.6635C15.5456 18.5834 14.8076 17.7804 13.7534 17.7422C12.68 17.7135 11.8654 18.4591 11.8271 19.5106C11.7887 20.5812 12.5459 21.3937 13.6001 21.4319Z" fill="#DB831B"/>
<path d="M25.5264 17.7419C24.4525 17.7323 23.6566 18.4975 23.6471 19.5591C23.6375 20.6303 24.4045 21.4241 25.4688 21.4337C26.5427 21.4433 27.329 20.6781 27.3386 19.6165C27.3577 18.5357 26.6003 17.7515 25.5264 17.7419Z" fill="#DB831B"/>
</svg>
