<svg width="458" height="280" viewBox="0 0 458 280" fill="none" xmlns="http://www.w3.org/2000/svg">
<g opacity="0.5">
<path d="M-44.0257 40.4106C-85.7668 -74.1861 68.8577 -85.8507 180.445 -51.2485C245.552 -33.453 288.308 -88.7956 368.962 -66.7091C449.616 -44.6225 352.929 24.9501 476.339 60.6567C599.749 96.3633 539.502 256.122 431.639 257.963C323.776 259.804 353.414 286.676 245.552 348.15C137.689 409.624 -44.0255 324.223 1.16016 234.036C46.3458 143.849 1.15966 164.463 -44.0257 40.4106Z" stroke="white" stroke-width="0.5"/>
<path d="M188.12 129.595C183.304 118.68 205.862 101.072 224.001 108.587C240.612 115.468 257.526 110.827 268.701 113.895C298.12 121.971 287.299 126.246 300.45 135.838C316.454 147.51 324.09 178.074 287.299 178.074C257.04 178.074 266.094 189.209 243.436 194.142C220.778 199.076 195.082 190.678 195.082 168.568C195.082 160.265 196.142 147.774 188.12 129.595Z" stroke="white" stroke-width="0.5"/>
<path d="M-22.9245 47.9616C-61.3087 -57.2095 81.3098 -69.4144 184.402 -37.2747C245.1 -20.4714 285.507 -71.2047 359.845 -50.8472C435.841 -30.0343 346.959 33.6022 460.346 66.9347C573.992 100.456 519.916 248.47 418.514 250.144C317.706 251.817 345.473 277.258 245.356 333.592C145.24 389.927 -22.2913 311.525 18.7865 227.528C59.8644 144.785 18.8824 162.389 -22.9245 47.9616Z" stroke="white" stroke-width="0.5"/>
<path d="M-1.8231 55.5127C-36.8506 -40.2327 93.7619 -52.9779 188.359 -23.3007C244.648 -7.4896 282.706 -53.6137 350.727 -34.9852C422.066 -15.4459 340.99 42.2544 444.354 73.2129C548.235 104.55 500.33 240.819 405.39 242.325C311.637 243.831 337.532 267.841 245.161 319.035C152.79 370.229 -0.557136 298.829 36.4129 221.02C73.383 145.721 36.6052 160.316 -1.8231 55.5127Z" stroke="white" stroke-width="0.5"/>
<path d="M19.2783 63.0645C-12.3923 -23.2553 106.214 -36.5408 192.316 -9.32612C244.196 5.49276 279.904 -36.0221 341.61 -19.1225C408.291 -0.856953 335.021 50.9072 428.361 79.4916C522.478 108.643 480.744 233.167 392.265 234.506C305.567 235.845 329.591 258.425 244.966 304.479C160.341 350.533 21.1772 286.132 54.0395 214.512C86.9017 146.657 54.3281 158.243 19.2783 63.0645Z" stroke="white" stroke-width="0.5"/>
<path d="M40.3799 70.6166C12.0661 -6.27753 118.667 -20.1034 196.273 4.64881C243.744 18.4755 277.103 -18.4302 332.492 -3.25953C394.516 13.7324 329.052 59.5604 412.368 85.7708C496.722 112.738 461.159 225.517 379.141 226.688C299.498 227.859 321.65 249.008 244.771 289.922C167.892 330.836 42.9116 273.436 71.6661 208.005C100.421 147.594 72.0512 156.17 40.3799 70.6166Z" stroke="white" stroke-width="0.5"/>
<path d="M61.4818 78.5516C36.5248 11.0831 131.119 -3.28304 200.23 19.0066C243.293 31.8411 274.303 -0.455288 323.375 12.9864C380.741 28.7046 323.084 68.5965 396.376 92.4328C470.965 117.215 441.574 218.249 366.017 219.253C293.428 220.257 313.71 239.975 244.577 275.749C175.443 311.523 64.6464 261.123 89.2931 201.881C113.94 148.914 89.7745 154.48 61.4818 78.5516Z" stroke="white" stroke-width="0.5"/>
<path d="M82.584 86.9391C60.9838 28.8962 143.572 13.9897 204.188 33.8169C242.842 45.6592 271.502 17.972 314.259 29.6847C366.967 44.1293 317.115 78.085 380.384 99.5472C445.209 122.144 421.989 211.433 352.893 212.27C287.359 213.106 305.77 231.394 244.382 262.028C182.995 292.662 86.3814 249.263 106.92 196.209C127.459 150.686 107.498 153.242 82.584 86.9391Z" stroke="white" stroke-width="0.5"/>
<path d="M103.687 95.3516C85.4434 46.7344 156.026 31.2876 208.146 48.6522C242.391 59.5023 268.703 36.4244 305.143 46.4081C353.193 59.579 311.148 87.5986 364.393 106.687C419.453 127.099 402.405 204.643 339.77 205.312C281.291 205.981 297.83 222.839 244.189 248.332C190.547 273.826 108.117 237.427 124.548 190.562C140.979 152.483 125.222 152.03 103.687 95.3516Z" stroke="white" stroke-width="0.5"/>
<path d="M124.79 103.8C109.904 64.6089 168.48 48.6217 212.105 63.5239C241.941 73.3818 265.904 54.9131 296.028 63.1678C339.42 75.0651 305.181 97.1486 348.402 113.863C393.699 132.09 382.821 197.889 326.647 198.391C275.224 198.893 289.891 214.319 243.995 234.673C198.1 255.027 129.853 225.628 142.177 184.952C154.5 154.317 142.947 150.854 124.79 103.8Z" stroke="white" stroke-width="0.5"/>
<path d="M145.895 112.303C134.366 82.5368 180.936 66.0093 216.066 78.449C241.493 87.3147 263.106 73.4552 286.914 79.981C325.649 90.6046 299.215 106.752 332.414 121.092C367.945 137.134 363.239 191.188 313.526 191.523C269.158 191.857 281.954 205.853 243.804 221.067C205.654 236.281 151.591 213.882 159.807 179.395C168.023 156.204 160.674 149.731 145.895 112.303Z" stroke="white" stroke-width="0.5"/>
<path d="M167.004 120.886C158.831 100.546 193.395 83.4778 220.029 93.455C241.048 101.328 260.312 92.0782 277.803 96.875C311.88 106.225 293.253 116.436 316.428 128.402C342.195 142.259 343.66 184.568 300.408 184.736C263.095 184.903 274.02 197.468 243.616 207.542C213.212 217.615 173.333 202.217 177.44 173.919C181.548 158.172 178.404 148.69 167.004 120.886Z" stroke="white" stroke-width="0.5"/>
</g>
</svg>
